<svg viewBox="0 0 29 28" fill="none" xmlns="http://www.w3.org/2000/svg">
  <path fill-rule="evenodd" clip-rule="evenodd" d="M14.238 0C6.374 0 0 6.268 0 14s6.374 14 14.238 14c7.863 0 14.237-6.268 14.237-14S22.101 0 14.237 0zm-.397 11.864l-.03-.485c-.09-1.255.697-2.402 1.942-2.847.458-.158 1.235-.178 1.743-.04.2.06.578.258.846.436l.488.326.538-.168c.299-.09.697-.238.877-.336.169-.09.318-.139.318-.11 0 .169-.368.742-.677 1.059-.418.445-.299.484.548.188.508-.169.518-.169.418.02-.06.098-.368.444-.697.76-.558.544-.588.604-.588 1.058 0 .702-.338 2.165-.677 2.966-.627 1.503-1.972 3.055-3.316 3.836-1.892 1.098-4.412 1.374-6.533.732-.707-.218-1.922-.771-1.922-.87 0-.03.368-.07.816-.08a5.68 5.68 0 0 0 2.67-.73l.537-.317-.617-.208c-.877-.296-1.663-.979-1.863-1.621-.06-.208-.04-.218.518-.218l.578-.01-.488-.227c-.578-.287-1.106-.771-1.364-1.265-.19-.356-.429-1.256-.359-1.325.02-.03.23.03.468.108.687.248.777.188.378-.227-.746-.751-.975-1.868-.617-2.926l.17-.475.657.643c1.344 1.295 2.928 2.066 4.74 2.294l.498.059z" fill="#fff"/>
</svg>
