<svg viewBox="0 0 29 28" fill="none" xmlns="http://www.w3.org/2000/svg">
  <path fill-rule="evenodd" clip-rule="evenodd" d="M14.79 0C6.94 0 .577 6.257.577 13.976c0 6.175 4.072 11.414 9.718 13.262.71.129.971-.304.971-.673 0-.333-.013-1.434-.019-2.602-3.954.846-4.788-1.649-4.788-1.649-.646-1.615-1.578-2.045-1.578-2.045-1.289-.867.098-.85.098-.85 1.427.099 2.178 1.44 2.178 1.44 1.267 2.137 3.325 1.52 4.135 1.163.128-.903.496-1.52.903-1.87-3.157-.353-6.475-1.551-6.475-6.906 0-1.526.555-2.773 1.464-3.752-.147-.352-.634-1.773.138-3.698 0 0 1.193-.376 3.91 1.432 1.133-.31 2.348-.464 3.556-.47 1.208.006 2.424.16 3.56.47 2.713-1.808 3.904-1.432 3.904-1.432.774 1.925.287 3.346.14 3.698.91.98 1.462 2.226 1.462 3.752 0 5.368-3.324 6.55-6.489 6.896.51.433.964 1.284.964 2.588 0 1.87-.016 3.375-.016 3.835 0 .372.255.808.976.67 5.643-1.85 9.71-7.086 9.71-13.26C29 6.258 22.637 0 14.79 0z" fill="#fff"/>
  <path fill-rule="evenodd" clip-rule="evenodd" d="M5.96 20.066c-.03.07-.142.09-.243.043-.103-.046-.161-.14-.128-.21.03-.072.142-.091.245-.044.103.046.162.142.126.211zM6.536 20.698c-.068.061-.2.033-.29-.065-.093-.097-.11-.228-.042-.29.07-.062.199-.033.292.064.093.099.11.228.04.29zM7.096 21.503c-.087.059-.229.003-.317-.121-.087-.124-.087-.273.002-.333.088-.06.228-.006.318.117.086.126.086.276-.003.337zM7.864 22.28c-.078.085-.244.062-.365-.053-.124-.113-.159-.273-.08-.357.078-.085.245-.061.367.053.123.113.161.274.078.357zM8.923 22.732c-.035.11-.194.159-.355.112-.161-.047-.266-.176-.234-.286.034-.11.194-.162.356-.113.16.048.266.175.233.287zM10.086 22.815c.004.116-.133.211-.302.213-.17.004-.307-.09-.309-.203 0-.116.134-.21.303-.213.17-.004.308.089.308.203zM11.168 22.634c.02.113-.097.228-.265.259-.165.03-.317-.04-.338-.151-.02-.116.099-.231.263-.26.168-.03.319.038.34.152z" fill="#fff"/>
</svg>
