<svg viewBox="0 0 29 28" fill="none" xmlns="http://www.w3.org/2000/svg">
  <path fill-rule="evenodd" clip-rule="evenodd" d="M14.527 0C6.663 0 .289 6.268.289 14s6.374 14 14.238 14c7.863 0 14.237-6.268 14.237-14S22.39 0 14.527 0zM7.124 11.595h3.227v9.533H7.124v-9.533zm3.44-2.948C10.541 7.712 9.861 7 8.758 7c-1.104 0-1.826.712-1.826 1.647 0 .915.7 1.647 1.784 1.647h.02c1.125 0 1.826-.732 1.826-1.647zm7.708 2.725c2.123 0 3.715 1.362 3.715 4.29v5.466H18.76v-5.1c0-1.28-.467-2.155-1.635-2.155-.891 0-1.422.59-1.655 1.158-.086.204-.107.489-.107.774v5.323h-3.226s.042-8.638 0-9.532h3.226v1.35c.429-.65 1.196-1.574 2.909-1.574z" fill="#fff"/>
</svg>
